<?xml version='1.0' encoding='UTF-8'?>
<!DOCTYPE svg PUBLIC "-//W3C//DTD SVG 1.0//EN" "http://www.w3.org/TR/2001/REC-SVG-20010904/DTD/svg10.dtd">
<svg viewBox="0 0 2516 926" xmlns="http://www.w3.org/2000/svg" xmlns:inkspace="http://www.inkscape.org/namespaces/inkscape" xmlns:xlink="http://www.w3.org/1999/xlink">
  <defs id="defs_block">
    <filter height="1.504" id="filter_blur" inkspace:collect="always" width="1.1575" x="-0.07875" y="-0.252">
      <feGaussianBlur id="feGaussianBlur3780" inkspace:collect="always" stdDeviation="4.2" />
    </filter>
  </defs>
  <title>blockdiag</title>
  <desc>nwdiag {
   node_width = 100;
   node_height = 50;
  group {
    label = "control";
    control001;
    control002;
    control003;
  }
  group {
    label = "compute";
    compute001;
    compute002;
    compute003;
    compute004;
    compute005;
    compute006;
  }
  group {
    label = "seed";
    seed;
  }
  group {
    label = "storage";
    storage001;
    storage002;
    storage003;
  }
  group {
    label = "network";
    network001;
    network002;
    external_vip;
  }
  network storage {
    storage001 [ address = "eth2" ];
    storage002 [ address = "eth2" ];
    storage003 [ address = "eth2" ];
    compute001 [ address = "eth2" ];
    compute002 [ address = "eth2" ];
    compute003 [ address = "eth2" ];
    compute004 [ address = "eth2" ];
    compute005 [ address = "eth2" ];
    compute006 [ address = "eth2" ];
  }
  network vip_external {
    network001 [ address = "eth2" ];
    network002 [ address = "eth2" ];
    external_vip [ address= "192.168.200.100" ];
  }
  network neutron_external {
    network001 [ address = "eth3" ];
    network002 [ address = "eth3" ];
  }
  network cluster {
    control001 [ address = "eth2" ];
    control002 [ address = "eth2" ];
    control003 [ address = "eth2" ];
    storage001 [ address = "eth2" ];
    storage002 [ address = "eth2" ];
    storage003 [ address = "eth2" ];
  }
  network internal {
    control001 [ address = "eth0" ];
    control002 [ address = "eth0" ];
    control003 [ address = "eth0" ];
    storage001 [ address = "eth0" ];
    storage002 [ address = "eth0" ];
    storage003 [ address = "eth0" ];
    seed [ address = "eth0" ];
    compute001 [ address = "eth0" ];
    compute002 [ address = "eth0" ];
    compute003 [ address = "eth0" ];
    compute004 [ address = "eth0" ];
    compute005 [ address = "eth0" ];
    compute006 [ address = "eth0" ];
    network001 [ address = "eth0" ];
    network002 [ address = "eth0" ];
    internal_vip [ address= "192.168.100.100" ];
  }
  network tunnel {
    compute001 [ address = "eth1" ];
    compute002 [ address = "eth1" ];
    compute003 [ address = "eth1" ];
    compute004 [ address = "eth1" ];
    compute005 [ address = "eth1" ];
    compute006 [ address = "eth1" ];
    network001 [ address = "eth1" ];
    network002 [ address = "eth1" ];
  }
}
</desc>
  <rect fill="rgb(243,152,0)" height="102" style="filter:url(#filter_blur)" width="408" x="142" y="592" />
  <rect fill="rgb(243,152,0)" height="102" style="filter:url(#filter_blur)" width="852" x="586" y="130" />
  <rect fill="rgb(243,152,0)" height="102" style="filter:url(#filter_blur)" width="112" x="1474" y="746" />
  <rect fill="rgb(243,152,0)" height="102" style="filter:url(#filter_blur)" width="408" x="1622" y="130" />
  <rect fill="rgb(243,152,0)" height="102" style="filter:url(#filter_blur)" width="408" x="2066" y="284" />
  <rect fill="rgb(0,0,0)" height="50" stroke="rgb(0,0,0)" style="filter:url(#filter_blur);opacity:0.7;fill-opacity:1" width="100" x="151" y="624" />
  <rect fill="rgb(0,0,0)" height="50" stroke="rgb(0,0,0)" style="filter:url(#filter_blur);opacity:0.7;fill-opacity:1" width="100" x="299" y="624" />
  <rect fill="rgb(0,0,0)" height="50" stroke="rgb(0,0,0)" style="filter:url(#filter_blur);opacity:0.7;fill-opacity:1" width="100" x="447" y="624" />
  <rect fill="rgb(0,0,0)" height="50" stroke="rgb(0,0,0)" style="filter:url(#filter_blur);opacity:0.7;fill-opacity:1" width="100" x="595" y="162" />
  <rect fill="rgb(0,0,0)" height="50" stroke="rgb(0,0,0)" style="filter:url(#filter_blur);opacity:0.7;fill-opacity:1" width="100" x="743" y="162" />
  <rect fill="rgb(0,0,0)" height="50" stroke="rgb(0,0,0)" style="filter:url(#filter_blur);opacity:0.7;fill-opacity:1" width="100" x="891" y="162" />
  <rect fill="rgb(0,0,0)" height="50" stroke="rgb(0,0,0)" style="filter:url(#filter_blur);opacity:0.7;fill-opacity:1" width="100" x="1039" y="162" />
  <rect fill="rgb(0,0,0)" height="50" stroke="rgb(0,0,0)" style="filter:url(#filter_blur);opacity:0.7;fill-opacity:1" width="100" x="1187" y="162" />
  <rect fill="rgb(0,0,0)" height="50" stroke="rgb(0,0,0)" style="filter:url(#filter_blur);opacity:0.7;fill-opacity:1" width="100" x="1335" y="162" />
  <rect fill="rgb(0,0,0)" height="50" stroke="rgb(0,0,0)" style="filter:url(#filter_blur);opacity:0.7;fill-opacity:1" width="100" x="1483" y="778" />
  <rect fill="rgb(0,0,0)" height="50" stroke="rgb(0,0,0)" style="filter:url(#filter_blur);opacity:0.7;fill-opacity:1" width="100" x="1631" y="162" />
  <rect fill="rgb(0,0,0)" height="50" stroke="rgb(0,0,0)" style="filter:url(#filter_blur);opacity:0.7;fill-opacity:1" width="100" x="1779" y="162" />
  <rect fill="rgb(0,0,0)" height="50" stroke="rgb(0,0,0)" style="filter:url(#filter_blur);opacity:0.7;fill-opacity:1" width="100" x="1927" y="162" />
  <rect fill="rgb(0,0,0)" height="50" stroke="rgb(0,0,0)" style="filter:url(#filter_blur);opacity:0.7;fill-opacity:1" width="100" x="2075" y="316" />
  <rect fill="rgb(0,0,0)" height="50" stroke="rgb(0,0,0)" style="filter:url(#filter_blur);opacity:0.7;fill-opacity:1" width="100" x="2223" y="316" />
  <rect fill="rgb(0,0,0)" height="50" stroke="rgb(0,0,0)" style="filter:url(#filter_blur);opacity:0.7;fill-opacity:1" width="100" x="2371" y="316" />
  <rect fill="rgb(0,0,0)" height="50" stroke="rgb(0,0,0)" style="filter:url(#filter_blur);opacity:0.7;fill-opacity:1" width="100" x="2371" y="778" />
  <path d="M 571 103 L 2051 103 A2,4 0 0 1 2051 111 L 571 111 A2,4 0 0 1 571 103" fill="rgb(0,0,0)" style="filter:url(#filter_blur)" />
  <path d="M 2051 257 L 2495 257 A2,4 0 0 1 2495 265 L 2051 265 A2,4 0 0 1 2051 257" fill="rgb(0,0,0)" style="filter:url(#filter_blur)" />
  <path d="M 2051 411 L 2347 411 A2,4 0 0 1 2347 419 L 2051 419 A2,4 0 0 1 2051 411" fill="rgb(0,0,0)" style="filter:url(#filter_blur)" />
  <path d="M 127 565 L 2051 565 A2,4 0 0 1 2051 573 L 127 573 A2,4 0 0 1 127 565" fill="rgb(0,0,0)" style="filter:url(#filter_blur)" />
  <path d="M 127 719 L 2495 719 A2,4 0 0 1 2495 727 L 127 727 A2,4 0 0 1 127 719" fill="rgb(0,0,0)" style="filter:url(#filter_blur)" />
  <path d="M 571 873 L 2347 873 A2,4 0 0 1 2347 881 L 571 881 A2,4 0 0 1 571 873" fill="rgb(0,0,0)" style="filter:url(#filter_blur)" />
  <path d="M 568 100 L 2048 100 A2,4 0 0 1 2048 108 L 568 108 A2,4 0 0 1 568 100" fill="rgb(185,203,228)" stroke="rgb(0,0,0)" />
  <path d="M 2048 108 A2,4 0 0 1 2048 100" fill="none" stroke="rgb(0,0,0)" />
  <path d="M 568 100 L 2048 100" fill="none" stroke="none" />
  <path d="M 1308 35 L 1308 100" fill="none" stroke="rgb(0,0,0)" />
  <path d="M 2048 254 L 2492 254 A2,4 0 0 1 2492 262 L 2048 262 A2,4 0 0 1 2048 254" fill="rgb(185,203,228)" stroke="rgb(0,0,0)" />
  <path d="M 2492 262 A2,4 0 0 1 2492 254" fill="none" stroke="rgb(0,0,0)" />
  <path d="M 2048 254 L 2492 254" fill="none" stroke="none" />
  <path d="M 2048 408 L 2344 408 A2,4 0 0 1 2344 416 L 2048 416 A2,4 0 0 1 2048 408" fill="rgb(185,203,228)" stroke="rgb(0,0,0)" />
  <path d="M 2344 416 A2,4 0 0 1 2344 408" fill="none" stroke="rgb(0,0,0)" />
  <path d="M 2048 408 L 2344 408" fill="none" stroke="none" />
  <path d="M 124 562 L 2048 562 A2,4 0 0 1 2048 570 L 124 570 A2,4 0 0 1 124 562" fill="rgb(185,203,228)" stroke="rgb(0,0,0)" />
  <path d="M 2048 570 A2,4 0 0 1 2048 562" fill="none" stroke="rgb(0,0,0)" />
  <path d="M 124 562 L 2048 562" fill="none" stroke="none" />
  <path d="M 124 716 L 2492 716 A2,4 0 0 1 2492 724 L 124 724 A2,4 0 0 1 124 716" fill="rgb(185,203,228)" stroke="rgb(0,0,0)" />
  <path d="M 2492 724 A2,4 0 0 1 2492 716" fill="none" stroke="rgb(0,0,0)" />
  <path d="M 124 716 L 2492 716" fill="none" stroke="none" />
  <path d="M 568 870 L 2344 870 A2,4 0 0 1 2344 878 L 568 878 A2,4 0 0 1 568 870" fill="rgb(185,203,228)" stroke="rgb(0,0,0)" />
  <path d="M 2344 878 A2,4 0 0 1 2344 870" fill="none" stroke="rgb(0,0,0)" />
  <path d="M 568 870 L 2344 870" fill="none" stroke="none" />
  <text fill="rgb(0,0,0)" font-family="sans-serif" font-size="11" font-style="normal" font-weight="normal" text-anchor="middle" textLength="37" x="541" y="110">storage</text>
  <text fill="rgb(0,0,0)" font-family="sans-serif" font-size="11" font-style="normal" font-weight="normal" text-anchor="middle" textLength="60" x="2010" y="264">vip_external</text>
  <text fill="rgb(0,0,0)" font-family="sans-serif" font-size="11" font-style="normal" font-weight="normal" text-anchor="middle" textLength="84" x="1998" y="418">neutron_external</text>
  <text fill="rgb(0,0,0)" font-family="sans-serif" font-size="11" font-style="normal" font-weight="normal" text-anchor="middle" textLength="33" x="99" y="571">cluster</text>
  <text fill="rgb(0,0,0)" font-family="sans-serif" font-size="11" font-style="normal" font-weight="normal" text-anchor="middle" textLength="36" x="98" y="725">internal</text>
  <text fill="rgb(0,0,0)" font-family="sans-serif" font-size="11" font-style="normal" font-weight="normal" text-anchor="middle" textLength="30" x="545" y="879">tunnel</text>
  <path d="M 198 570 L 198 618" fill="none" stroke="rgb(0,0,0)" />
  <text fill="rgb(0,0,0)" font-family="sans-serif" font-size="11" font-style="normal" font-weight="normal" text-anchor="middle" textLength="23" x="221" y="597">eth2</text>
  <path d="M 198 668 L 198 716" fill="none" stroke="rgb(0,0,0)" />
  <text fill="rgb(0,0,0)" font-family="sans-serif" font-size="11" font-style="normal" font-weight="normal" text-anchor="middle" textLength="23" x="221" y="695">eth0</text>
  <rect fill="rgb(255,255,255)" height="50" stroke="rgb(0,0,0)" width="100" x="148" y="618" />
  <text fill="rgb(0,0,0)" font-family="sans-serif" font-size="11" font-style="normal" font-weight="normal" text-anchor="middle" textLength="55" x="198" y="648">control001</text>
  <path d="M 346 570 L 346 618" fill="none" stroke="rgb(0,0,0)" />
  <text fill="rgb(0,0,0)" font-family="sans-serif" font-size="11" font-style="normal" font-weight="normal" text-anchor="middle" textLength="23" x="369" y="597">eth2</text>
  <path d="M 346 668 L 346 716" fill="none" stroke="rgb(0,0,0)" />
  <text fill="rgb(0,0,0)" font-family="sans-serif" font-size="11" font-style="normal" font-weight="normal" text-anchor="middle" textLength="23" x="369" y="695">eth0</text>
  <rect fill="rgb(255,255,255)" height="50" stroke="rgb(0,0,0)" width="100" x="296" y="618" />
  <text fill="rgb(0,0,0)" font-family="sans-serif" font-size="11" font-style="normal" font-weight="normal" text-anchor="middle" textLength="55" x="346" y="648">control002</text>
  <path d="M 494 570 L 494 618" fill="none" stroke="rgb(0,0,0)" />
  <text fill="rgb(0,0,0)" font-family="sans-serif" font-size="11" font-style="normal" font-weight="normal" text-anchor="middle" textLength="23" x="517" y="597">eth2</text>
  <path d="M 494 668 L 494 716" fill="none" stroke="rgb(0,0,0)" />
  <text fill="rgb(0,0,0)" font-family="sans-serif" font-size="11" font-style="normal" font-weight="normal" text-anchor="middle" textLength="23" x="517" y="695">eth0</text>
  <rect fill="rgb(255,255,255)" height="50" stroke="rgb(0,0,0)" width="100" x="444" y="618" />
  <text fill="rgb(0,0,0)" font-family="sans-serif" font-size="11" font-style="normal" font-weight="normal" text-anchor="middle" textLength="55" x="494" y="648">control003</text>
  <path d="M 642 108 L 642 156" fill="none" stroke="rgb(0,0,0)" />
  <text fill="rgb(0,0,0)" font-family="sans-serif" font-size="11" font-style="normal" font-weight="normal" text-anchor="middle" textLength="23" x="665" y="135">eth2</text>
  <path d="M 650 206 L 650 558" fill="none" stroke="rgb(0,0,0)" />
  <path d="M 650.0 558.0 A8,8 0 0 1 650.0 574.0" fill="none" stroke="rgb(0,0,0)" />
  <path d="M 650 574 L 650 716" fill="none" stroke="rgb(0,0,0)" />
  <text fill="rgb(0,0,0)" font-family="sans-serif" font-size="11" font-style="normal" font-weight="normal" text-anchor="middle" textLength="23" x="673" y="695">eth0</text>
  <path d="M 634 206 L 634 558" fill="none" stroke="rgb(0,0,0)" />
  <path d="M 634.0 558.0 A8,8 0 0 1 634.0 574.0" fill="none" stroke="rgb(0,0,0)" />
  <path d="M 634 574 L 634 712" fill="none" stroke="rgb(0,0,0)" />
  <path d="M 634.0 712.0 A8,8 0 0 1 634.0 728.0" fill="none" stroke="rgb(0,0,0)" />
  <path d="M 634 728 L 634 870" fill="none" stroke="rgb(0,0,0)" />
  <text fill="rgb(0,0,0)" font-family="sans-serif" font-size="11" font-style="normal" font-weight="normal" text-anchor="middle" textLength="23" x="657" y="849">eth1</text>
  <rect fill="rgb(255,255,255)" height="50" stroke="rgb(0,0,0)" width="100" x="592" y="156" />
  <text fill="rgb(0,0,0)" font-family="sans-serif" font-size="11" font-style="normal" font-weight="normal" text-anchor="middle" textLength="65" x="642" y="187">compute001</text>
  <path d="M 790 108 L 790 156" fill="none" stroke="rgb(0,0,0)" />
  <text fill="rgb(0,0,0)" font-family="sans-serif" font-size="11" font-style="normal" font-weight="normal" text-anchor="middle" textLength="23" x="813" y="135">eth2</text>
  <path d="M 798 206 L 798 558" fill="none" stroke="rgb(0,0,0)" />
  <path d="M 798.0 558.0 A8,8 0 0 1 798.0 574.0" fill="none" stroke="rgb(0,0,0)" />
  <path d="M 798 574 L 798 716" fill="none" stroke="rgb(0,0,0)" />
  <text fill="rgb(0,0,0)" font-family="sans-serif" font-size="11" font-style="normal" font-weight="normal" text-anchor="middle" textLength="23" x="821" y="695">eth0</text>
  <path d="M 782 206 L 782 558" fill="none" stroke="rgb(0,0,0)" />
  <path d="M 782.0 558.0 A8,8 0 0 1 782.0 574.0" fill="none" stroke="rgb(0,0,0)" />
  <path d="M 782 574 L 782 712" fill="none" stroke="rgb(0,0,0)" />
  <path d="M 782.0 712.0 A8,8 0 0 1 782.0 728.0" fill="none" stroke="rgb(0,0,0)" />
  <path d="M 782 728 L 782 870" fill="none" stroke="rgb(0,0,0)" />
  <text fill="rgb(0,0,0)" font-family="sans-serif" font-size="11" font-style="normal" font-weight="normal" text-anchor="middle" textLength="23" x="805" y="849">eth1</text>
  <rect fill="rgb(255,255,255)" height="50" stroke="rgb(0,0,0)" width="100" x="740" y="156" />
  <text fill="rgb(0,0,0)" font-family="sans-serif" font-size="11" font-style="normal" font-weight="normal" text-anchor="middle" textLength="65" x="790" y="187">compute002</text>
  <path d="M 938 108 L 938 156" fill="none" stroke="rgb(0,0,0)" />
  <text fill="rgb(0,0,0)" font-family="sans-serif" font-size="11" font-style="normal" font-weight="normal" text-anchor="middle" textLength="23" x="961" y="135">eth2</text>
  <path d="M 946 206 L 946 558" fill="none" stroke="rgb(0,0,0)" />
  <path d="M 946.0 558.0 A8,8 0 0 1 946.0 574.0" fill="none" stroke="rgb(0,0,0)" />
  <path d="M 946 574 L 946 716" fill="none" stroke="rgb(0,0,0)" />
  <text fill="rgb(0,0,0)" font-family="sans-serif" font-size="11" font-style="normal" font-weight="normal" text-anchor="middle" textLength="23" x="969" y="695">eth0</text>
  <path d="M 930 206 L 930 558" fill="none" stroke="rgb(0,0,0)" />
  <path d="M 930.0 558.0 A8,8 0 0 1 930.0 574.0" fill="none" stroke="rgb(0,0,0)" />
  <path d="M 930 574 L 930 712" fill="none" stroke="rgb(0,0,0)" />
  <path d="M 930.0 712.0 A8,8 0 0 1 930.0 728.0" fill="none" stroke="rgb(0,0,0)" />
  <path d="M 930 728 L 930 870" fill="none" stroke="rgb(0,0,0)" />
  <text fill="rgb(0,0,0)" font-family="sans-serif" font-size="11" font-style="normal" font-weight="normal" text-anchor="middle" textLength="23" x="953" y="849">eth1</text>
  <rect fill="rgb(255,255,255)" height="50" stroke="rgb(0,0,0)" width="100" x="888" y="156" />
  <text fill="rgb(0,0,0)" font-family="sans-serif" font-size="11" font-style="normal" font-weight="normal" text-anchor="middle" textLength="65" x="938" y="187">compute003</text>
  <path d="M 1086 108 L 1086 156" fill="none" stroke="rgb(0,0,0)" />
  <text fill="rgb(0,0,0)" font-family="sans-serif" font-size="11" font-style="normal" font-weight="normal" text-anchor="middle" textLength="23" x="1109" y="135">eth2</text>
  <path d="M 1094 206 L 1094 558" fill="none" stroke="rgb(0,0,0)" />
  <path d="M 1094.0 558.0 A8,8 0 0 1 1094.0 574.0" fill="none" stroke="rgb(0,0,0)" />
  <path d="M 1094 574 L 1094 716" fill="none" stroke="rgb(0,0,0)" />
  <text fill="rgb(0,0,0)" font-family="sans-serif" font-size="11" font-style="normal" font-weight="normal" text-anchor="middle" textLength="23" x="1117" y="695">eth0</text>
  <path d="M 1078 206 L 1078 558" fill="none" stroke="rgb(0,0,0)" />
  <path d="M 1078.0 558.0 A8,8 0 0 1 1078.0 574.0" fill="none" stroke="rgb(0,0,0)" />
  <path d="M 1078 574 L 1078 712" fill="none" stroke="rgb(0,0,0)" />
  <path d="M 1078.0 712.0 A8,8 0 0 1 1078.0 728.0" fill="none" stroke="rgb(0,0,0)" />
  <path d="M 1078 728 L 1078 870" fill="none" stroke="rgb(0,0,0)" />
  <text fill="rgb(0,0,0)" font-family="sans-serif" font-size="11" font-style="normal" font-weight="normal" text-anchor="middle" textLength="23" x="1101" y="849">eth1</text>
  <rect fill="rgb(255,255,255)" height="50" stroke="rgb(0,0,0)" width="100" x="1036" y="156" />
  <text fill="rgb(0,0,0)" font-family="sans-serif" font-size="11" font-style="normal" font-weight="normal" text-anchor="middle" textLength="65" x="1086" y="187">compute004</text>
  <path d="M 1234 108 L 1234 156" fill="none" stroke="rgb(0,0,0)" />
  <text fill="rgb(0,0,0)" font-family="sans-serif" font-size="11" font-style="normal" font-weight="normal" text-anchor="middle" textLength="23" x="1257" y="135">eth2</text>
  <path d="M 1242 206 L 1242 558" fill="none" stroke="rgb(0,0,0)" />
  <path d="M 1242.0 558.0 A8,8 0 0 1 1242.0 574.0" fill="none" stroke="rgb(0,0,0)" />
  <path d="M 1242 574 L 1242 716" fill="none" stroke="rgb(0,0,0)" />
  <text fill="rgb(0,0,0)" font-family="sans-serif" font-size="11" font-style="normal" font-weight="normal" text-anchor="middle" textLength="23" x="1265" y="695">eth0</text>
  <path d="M 1226 206 L 1226 558" fill="none" stroke="rgb(0,0,0)" />
  <path d="M 1226.0 558.0 A8,8 0 0 1 1226.0 574.0" fill="none" stroke="rgb(0,0,0)" />
  <path d="M 1226 574 L 1226 712" fill="none" stroke="rgb(0,0,0)" />
  <path d="M 1226.0 712.0 A8,8 0 0 1 1226.0 728.0" fill="none" stroke="rgb(0,0,0)" />
  <path d="M 1226 728 L 1226 870" fill="none" stroke="rgb(0,0,0)" />
  <text fill="rgb(0,0,0)" font-family="sans-serif" font-size="11" font-style="normal" font-weight="normal" text-anchor="middle" textLength="23" x="1249" y="849">eth1</text>
  <rect fill="rgb(255,255,255)" height="50" stroke="rgb(0,0,0)" width="100" x="1184" y="156" />
  <text fill="rgb(0,0,0)" font-family="sans-serif" font-size="11" font-style="normal" font-weight="normal" text-anchor="middle" textLength="65" x="1234" y="187">compute005</text>
  <path d="M 1382 108 L 1382 156" fill="none" stroke="rgb(0,0,0)" />
  <text fill="rgb(0,0,0)" font-family="sans-serif" font-size="11" font-style="normal" font-weight="normal" text-anchor="middle" textLength="23" x="1405" y="135">eth2</text>
  <path d="M 1390 206 L 1390 558" fill="none" stroke="rgb(0,0,0)" />
  <path d="M 1390.0 558.0 A8,8 0 0 1 1390.0 574.0" fill="none" stroke="rgb(0,0,0)" />
  <path d="M 1390 574 L 1390 716" fill="none" stroke="rgb(0,0,0)" />
  <text fill="rgb(0,0,0)" font-family="sans-serif" font-size="11" font-style="normal" font-weight="normal" text-anchor="middle" textLength="23" x="1413" y="695">eth0</text>
  <path d="M 1374 206 L 1374 558" fill="none" stroke="rgb(0,0,0)" />
  <path d="M 1374.0 558.0 A8,8 0 0 1 1374.0 574.0" fill="none" stroke="rgb(0,0,0)" />
  <path d="M 1374 574 L 1374 712" fill="none" stroke="rgb(0,0,0)" />
  <path d="M 1374.0 712.0 A8,8 0 0 1 1374.0 728.0" fill="none" stroke="rgb(0,0,0)" />
  <path d="M 1374 728 L 1374 870" fill="none" stroke="rgb(0,0,0)" />
  <text fill="rgb(0,0,0)" font-family="sans-serif" font-size="11" font-style="normal" font-weight="normal" text-anchor="middle" textLength="23" x="1397" y="849">eth1</text>
  <rect fill="rgb(255,255,255)" height="50" stroke="rgb(0,0,0)" width="100" x="1332" y="156" />
  <text fill="rgb(0,0,0)" font-family="sans-serif" font-size="11" font-style="normal" font-weight="normal" text-anchor="middle" textLength="65" x="1382" y="187">compute006</text>
  <path d="M 1530 724 L 1530 772" fill="none" stroke="rgb(0,0,0)" />
  <text fill="rgb(0,0,0)" font-family="sans-serif" font-size="11" font-style="normal" font-weight="normal" text-anchor="middle" textLength="23" x="1553" y="751">eth0</text>
  <rect fill="rgb(255,255,255)" height="50" stroke="rgb(0,0,0)" width="100" x="1480" y="772" />
  <text fill="rgb(0,0,0)" font-family="sans-serif" font-size="11" font-style="normal" font-weight="normal" text-anchor="middle" textLength="23" x="1530" y="802">seed</text>
  <path d="M 1678 108 L 1678 156" fill="none" stroke="rgb(0,0,0)" />
  <text fill="rgb(0,0,0)" font-family="sans-serif" font-size="11" font-style="normal" font-weight="normal" text-anchor="middle" textLength="23" x="1701" y="135">eth2</text>
  <path d="M 1686 206 L 1686 562" fill="none" stroke="rgb(0,0,0)" />
  <text fill="rgb(0,0,0)" font-family="sans-serif" font-size="11" font-style="normal" font-weight="normal" text-anchor="middle" textLength="23" x="1709" y="541">eth2</text>
  <path d="M 1670 206 L 1670 558" fill="none" stroke="rgb(0,0,0)" />
  <path d="M 1670.0 558.0 A8,8 0 0 1 1670.0 574.0" fill="none" stroke="rgb(0,0,0)" />
  <path d="M 1670 574 L 1670 716" fill="none" stroke="rgb(0,0,0)" />
  <text fill="rgb(0,0,0)" font-family="sans-serif" font-size="11" font-style="normal" font-weight="normal" text-anchor="middle" textLength="23" x="1693" y="695">eth0</text>
  <rect fill="rgb(255,255,255)" height="50" stroke="rgb(0,0,0)" width="100" x="1628" y="156" />
  <text fill="rgb(0,0,0)" font-family="sans-serif" font-size="11" font-style="normal" font-weight="normal" text-anchor="middle" textLength="58" x="1678" y="187">storage001</text>
  <path d="M 1826 108 L 1826 156" fill="none" stroke="rgb(0,0,0)" />
  <text fill="rgb(0,0,0)" font-family="sans-serif" font-size="11" font-style="normal" font-weight="normal" text-anchor="middle" textLength="23" x="1849" y="135">eth2</text>
  <path d="M 1834 206 L 1834 562" fill="none" stroke="rgb(0,0,0)" />
  <text fill="rgb(0,0,0)" font-family="sans-serif" font-size="11" font-style="normal" font-weight="normal" text-anchor="middle" textLength="23" x="1857" y="541">eth2</text>
  <path d="M 1818 206 L 1818 558" fill="none" stroke="rgb(0,0,0)" />
  <path d="M 1818.0 558.0 A8,8 0 0 1 1818.0 574.0" fill="none" stroke="rgb(0,0,0)" />
  <path d="M 1818 574 L 1818 716" fill="none" stroke="rgb(0,0,0)" />
  <text fill="rgb(0,0,0)" font-family="sans-serif" font-size="11" font-style="normal" font-weight="normal" text-anchor="middle" textLength="23" x="1841" y="695">eth0</text>
  <rect fill="rgb(255,255,255)" height="50" stroke="rgb(0,0,0)" width="100" x="1776" y="156" />
  <text fill="rgb(0,0,0)" font-family="sans-serif" font-size="11" font-style="normal" font-weight="normal" text-anchor="middle" textLength="58" x="1826" y="187">storage002</text>
  <path d="M 1974 108 L 1974 156" fill="none" stroke="rgb(0,0,0)" />
  <text fill="rgb(0,0,0)" font-family="sans-serif" font-size="11" font-style="normal" font-weight="normal" text-anchor="middle" textLength="23" x="1997" y="135">eth2</text>
  <path d="M 1982 206 L 1982 562" fill="none" stroke="rgb(0,0,0)" />
  <text fill="rgb(0,0,0)" font-family="sans-serif" font-size="11" font-style="normal" font-weight="normal" text-anchor="middle" textLength="23" x="2005" y="541">eth2</text>
  <path d="M 1966 206 L 1966 558" fill="none" stroke="rgb(0,0,0)" />
  <path d="M 1966.0 558.0 A8,8 0 0 1 1966.0 574.0" fill="none" stroke="rgb(0,0,0)" />
  <path d="M 1966 574 L 1966 716" fill="none" stroke="rgb(0,0,0)" />
  <text fill="rgb(0,0,0)" font-family="sans-serif" font-size="11" font-style="normal" font-weight="normal" text-anchor="middle" textLength="23" x="1989" y="695">eth0</text>
  <rect fill="rgb(255,255,255)" height="50" stroke="rgb(0,0,0)" width="100" x="1924" y="156" />
  <text fill="rgb(0,0,0)" font-family="sans-serif" font-size="11" font-style="normal" font-weight="normal" text-anchor="middle" textLength="58" x="1974" y="187">storage003</text>
  <path d="M 2122 262 L 2122 310" fill="none" stroke="rgb(0,0,0)" />
  <text fill="rgb(0,0,0)" font-family="sans-serif" font-size="11" font-style="normal" font-weight="normal" text-anchor="middle" textLength="23" x="2145" y="289">eth2</text>
  <path d="M 2138 360 L 2138 408" fill="none" stroke="rgb(0,0,0)" />
  <text fill="rgb(0,0,0)" font-family="sans-serif" font-size="11" font-style="normal" font-weight="normal" text-anchor="middle" textLength="23" x="2161" y="387">eth3</text>
  <path d="M 2122 360 L 2122 404" fill="none" stroke="rgb(0,0,0)" />
  <path d="M 2122.0 404.0 A8,8 0 0 1 2122.0 420.0" fill="none" stroke="rgb(0,0,0)" />
  <path d="M 2122 420 L 2122 716" fill="none" stroke="rgb(0,0,0)" />
  <text fill="rgb(0,0,0)" font-family="sans-serif" font-size="11" font-style="normal" font-weight="normal" text-anchor="middle" textLength="23" x="2145" y="695">eth0</text>
  <path d="M 2106 360 L 2106 404" fill="none" stroke="rgb(0,0,0)" />
  <path d="M 2106.0 404.0 A8,8 0 0 1 2106.0 420.0" fill="none" stroke="rgb(0,0,0)" />
  <path d="M 2106 420 L 2106 712" fill="none" stroke="rgb(0,0,0)" />
  <path d="M 2106.0 712.0 A8,8 0 0 1 2106.0 728.0" fill="none" stroke="rgb(0,0,0)" />
  <path d="M 2106 728 L 2106 870" fill="none" stroke="rgb(0,0,0)" />
  <text fill="rgb(0,0,0)" font-family="sans-serif" font-size="11" font-style="normal" font-weight="normal" text-anchor="middle" textLength="23" x="2129" y="849">eth1</text>
  <rect fill="rgb(255,255,255)" height="50" stroke="rgb(0,0,0)" width="100" x="2072" y="310" />
  <text fill="rgb(0,0,0)" font-family="sans-serif" font-size="11" font-style="normal" font-weight="normal" text-anchor="middle" textLength="62" x="2122" y="340">network001</text>
  <path d="M 2270 262 L 2270 310" fill="none" stroke="rgb(0,0,0)" />
  <text fill="rgb(0,0,0)" font-family="sans-serif" font-size="11" font-style="normal" font-weight="normal" text-anchor="middle" textLength="23" x="2293" y="289">eth2</text>
  <path d="M 2286 360 L 2286 408" fill="none" stroke="rgb(0,0,0)" />
  <text fill="rgb(0,0,0)" font-family="sans-serif" font-size="11" font-style="normal" font-weight="normal" text-anchor="middle" textLength="23" x="2309" y="387">eth3</text>
  <path d="M 2270 360 L 2270 404" fill="none" stroke="rgb(0,0,0)" />
  <path d="M 2270.0 404.0 A8,8 0 0 1 2270.0 420.0" fill="none" stroke="rgb(0,0,0)" />
  <path d="M 2270 420 L 2270 716" fill="none" stroke="rgb(0,0,0)" />
  <text fill="rgb(0,0,0)" font-family="sans-serif" font-size="11" font-style="normal" font-weight="normal" text-anchor="middle" textLength="23" x="2293" y="695">eth0</text>
  <path d="M 2254 360 L 2254 404" fill="none" stroke="rgb(0,0,0)" />
  <path d="M 2254.0 404.0 A8,8 0 0 1 2254.0 420.0" fill="none" stroke="rgb(0,0,0)" />
  <path d="M 2254 420 L 2254 712" fill="none" stroke="rgb(0,0,0)" />
  <path d="M 2254.0 712.0 A8,8 0 0 1 2254.0 728.0" fill="none" stroke="rgb(0,0,0)" />
  <path d="M 2254 728 L 2254 870" fill="none" stroke="rgb(0,0,0)" />
  <text fill="rgb(0,0,0)" font-family="sans-serif" font-size="11" font-style="normal" font-weight="normal" text-anchor="middle" textLength="23" x="2277" y="849">eth1</text>
  <rect fill="rgb(255,255,255)" height="50" stroke="rgb(0,0,0)" width="100" x="2220" y="310" />
  <text fill="rgb(0,0,0)" font-family="sans-serif" font-size="11" font-style="normal" font-weight="normal" text-anchor="middle" textLength="62" x="2270" y="340">network002</text>
  <path d="M 2418 262 L 2418 310" fill="none" stroke="rgb(0,0,0)" />
  <text fill="rgb(0,0,0)" font-family="sans-serif" font-size="11" font-style="normal" font-weight="normal" text-anchor="middle" textLength="96" x="2478" y="289">192.168.200.100</text>
  <rect fill="rgb(255,255,255)" height="50" stroke="rgb(0,0,0)" width="100" x="2368" y="310" />
  <text fill="rgb(0,0,0)" font-family="sans-serif" font-size="11" font-style="normal" font-weight="normal" text-anchor="middle" textLength="60" x="2418" y="341">external_vip</text>
  <path d="M 2418 724 L 2418 772" fill="none" stroke="rgb(0,0,0)" />
  <text fill="rgb(0,0,0)" font-family="sans-serif" font-size="11" font-style="normal" font-weight="normal" text-anchor="middle" textLength="96" x="2478" y="751">192.168.100.100</text>
  <rect fill="rgb(255,255,255)" height="50" stroke="rgb(0,0,0)" width="100" x="2368" y="772" />
  <text fill="rgb(0,0,0)" font-family="sans-serif" font-size="11" font-style="normal" font-weight="normal" text-anchor="middle" textLength="56" x="2418" y="803">internal_vip</text>
  <text fill="rgb(0,0,0)" font-family="sans-serif" font-size="11" font-style="normal" font-weight="normal" text-anchor="middle" textLength="34" x="346" y="586">control</text>
  <text fill="rgb(0,0,0)" font-family="sans-serif" font-size="11" font-style="normal" font-weight="normal" text-anchor="middle" textLength="44" x="1012" y="126">compute</text>
  <text fill="rgb(0,0,0)" font-family="sans-serif" font-size="11" font-style="normal" font-weight="normal" text-anchor="middle" textLength="23" x="1530" y="740">seed</text>
  <text fill="rgb(0,0,0)" font-family="sans-serif" font-size="11" font-style="normal" font-weight="normal" text-anchor="middle" textLength="37" x="1826" y="126">storage</text>
  <text fill="rgb(0,0,0)" font-family="sans-serif" font-size="11" font-style="normal" font-weight="normal" text-anchor="middle" textLength="41" x="2270" y="278">network</text>
</svg>
